<?xml version="1.0" encoding="UTF-8" standalone="yes"?><svg xmlns="http://www.w3.org/2000/svg" version="1.2" width="800" height="800" baseProfile="tiny-ps" style="background-color:white"><title>Nishith P Shetty</title><desc>nishithpshetty.com</desc><path d="M0,0 L128,0 L128,1 L127,1 L127,2 L126,2 L126,3 L125,3 L125,5 L124,5 L124,6 L123,6 L123,7 L122,7 L122,8 L121,8 L121,9 L120,9 L120,10 L119,10 L119,12 L118,12 L118,13 L117,13 L117,14 L116,14 L116,15 L115,15 L115,16 L114,16 L114,17 L113,17 L113,19 L112,19 L112,20 L111,20 L111,21 L110,21 L110,22 L109,22 L109,23 L10,23 L10,24 L8,24 L8,26 L7,26 L7,28 L6,28 L6,30 L5,30 L5,32 L4,32 L4,34 L3,34 L3,36 L2,36 L2,39 L1,39 L1,40 L0,40 L0,42 L-1,42 L-1,44 L-2,44 L-2,46 L-3,46 L-3,48 L-4,48 L-4,50 L-5,50 L-5,52 L-6,52 L-6,54 L-7,54 L-7,56 L-8,56 L-8,58 L-9,58 L-9,60 L-10,60 L-10,62 L-11,62 L-11,64 L-12,64 L-12,66 L-13,66 L-13,68 L-14,68 L-14,70 L-15,70 L-15,72 L-16,72 L-16,74 L-17,74 L-17,76 L-18,76 L-18,78 L-19,78 L-19,80 L-20,80 L-20,82 L-21,82 L-21,84 L-22,84 L-22,86 L-23,86 L-23,88 L-24,88 L-24,90 L-25,90 L-25,92 L-26,92 L-26,94 L-27,94 L-27,96 L-28,96 L-28,98 L-29,98 L-29,100 L-30,100 L-30,102 L-31,102 L-31,104 L-32,104 L-32,106 L-33,106 L-33,108 L-34,108 L-34,110 L-35,110 L-35,112 L-36,112 L-36,114 L-37,114 L-37,116 L-38,116 L-38,118 L-39,118 L-39,120 L-40,120 L-40,122 L-41,122 L-41,124 L-42,124 L-42,126 L-43,126 L-43,128 L-44,128 L-44,130 L-45,130 L-45,132 L-46,132 L-46,134 L-47,134 L-47,136 L-48,136 L-48,138 L-49,138 L-49,140 L-50,140 L-50,142 L-51,142 L-51,144 L-52,144 L-52,146 L-53,146 L-53,148 L-54,148 L-54,150 L-55,150 L-55,152 L-56,152 L-56,154 L-57,154 L-57,156 L-58,156 L-58,158 L-59,158 L-59,160 L-60,160 L-60,162 L-61,162 L-61,164 L-62,164 L-62,166 L-63,166 L-63,168 L-64,168 L-64,170 L-65,170 L-65,172 L-66,172 L-66,174 L-67,174 L-67,176 L-68,176 L-68,178 L-69,178 L-69,180 L-70,180 L-70,182 L-71,182 L-71,184 L-72,184 L-72,186 L-73,186 L-73,188 L-74,188 L-74,190 L-75,190 L-75,192 L-76,192 L-76,194 L-77,194 L-77,196 L-78,196 L-78,198 L-79,198 L-79,200 L-80,200 L-80,202 L-81,202 L-81,204 L-82,204 L-82,206 L-83,206 L-83,208 L-84,208 L-84,210 L-85,210 L-85,212 L-86,212 L-86,214 L-87,214 L-87,216 L-88,216 L-88,218 L-89,218 L-89,220 L-90,220 L-90,222 L-91,222 L-91,224 L-92,224 L-92,226 L-93,226 L-93,228 L-94,228 L-94,230 L-95,230 L-95,232 L-96,232 L-96,234 L-97,234 L-97,236 L-98,236 L-98,238 L-99,238 L-99,240 L-100,240 L-100,242 L-101,242 L-101,244 L-102,244 L-102,246 L-103,246 L-103,248 L-104,248 L-104,250 L-105,250 L-105,252 L-106,252 L-106,254 L-107,254 L-107,256 L-108,256 L-108,258 L-109,258 L-109,260 L-110,260 L-110,262 L-111,262 L-111,264 L-112,264 L-112,266 L-113,266 L-113,268 L-114,268 L-114,270 L-115,270 L-115,272 L-116,272 L-116,274 L-117,274 L-117,276 L-118,276 L-118,278 L-119,278 L-119,280 L-120,280 L-120,282 L-121,282 L-121,284 L-122,284 L-122,286 L-123,286 L-123,288 L-124,288 L-124,290 L-125,290 L-125,292 L-126,292 L-126,294 L-127,294 L-127,296 L-128,296 L-128,298 L-129,298 L-129,300 L-130,300 L-130,302 L-131,302 L-131,304 L-132,304 L-132,306 L-133,306 L-133,308 L-134,308 L-134,310 L-135,310 L-135,312 L-136,312 L-136,314 L-137,314 L-137,316 L-138,316 L-138,318 L-139,318 L-139,320 L-140,320 L-140,322 L-141,322 L-141,324 L-142,324 L-142,326 L-143,326 L-143,328 L-144,328 L-144,330 L-145,330 L-145,332 L-146,332 L-146,334 L-147,334 L-147,336 L-148,336 L-148,338 L-149,338 L-149,340 L-150,340 L-150,342 L-151,342 L-151,344 L-152,344 L-152,346 L-153,346 L-153,348 L-154,348 L-154,350 L-155,350 L-155,352 L-156,352 L-156,354 L-157,354 L-157,356 L-158,356 L-158,358 L-159,358 L-159,360 L-160,360 L-160,362 L-161,362 L-161,364 L-162,364 L-162,366 L-163,366 L-163,368 L-164,368 L-164,370 L-165,370 L-165,372 L-166,372 L-166,374 L-167,374 L-167,376 L-168,376 L-168,378 L-169,378 L-169,380 L-170,380 L-170,382 L-171,382 L-171,384 L-172,384 L-172,386 L-173,386 L-173,388 L-174,388 L-174,390 L-175,390 L-175,392 L-176,392 L-176,394 L-177,394 L-177,396 L-178,396 L-178,398 L-179,398 L-179,400 L-180,400 L-180,402 L-181,402 L-181,404 L-182,404 L-182,406 L-183,406 L-183,408 L-184,408 L-184,410 L-185,410 L-185,412 L-186,412 L-186,414 L-187,414 L-187,416 L-188,416 L-188,418 L-189,418 L-189,420 L-190,420 L-190,422 L-191,422 L-191,424 L-192,424 L-192,426 L-193,426 L-193,428 L-194,428 L-194,430 L-195,430 L-195,432 L-196,432 L-196,434 L-197,434 L-197,436 L-198,436 L-198,438 L-199,438 L-199,440 L-200,440 L-200,442 L-201,442 L-201,444 L-202,444 L-202,446 L-203,446 L-203,448 L-204,448 L-204,450 L-205,450 L-205,452 L-206,452 L-206,454 L-207,454 L-207,456 L-208,456 L-208,458 L-209,458 L-209,460 L-210,460 L-210,462 L-211,462 L-211,464 L-212,464 L-212,466 L-213,466 L-213,468 L-214,468 L-214,470 L-215,470 L-215,472 L-216,472 L-216,474 L-217,474 L-217,476 L-218,476 L-218,478 L-219,478 L-219,480 L-220,480 L-220,482 L-221,482 L-221,483 L-222,483 L-222,485 L-223,485 L-223,486 L-224,486 L-224,488 L-225,488 L-225,489 L-226,489 L-226,490 L-227,490 L-227,492 L-228,492 L-228,493 L-229,493 L-229,494 L-230,494 L-230,495 L-231,495 L-231,496 L-232,496 L-232,497 L-233,497 L-233,498 L-234,498 L-234,499 L-235,499 L-235,500 L-236,500 L-236,501 L-237,501 L-237,502 L-238,502 L-238,503 L-239,503 L-239,504 L-241,504 L-241,505 L-242,505 L-242,506 L-243,506 L-243,507 L-245,507 L-245,508 L-246,508 L-246,509 L-248,509 L-248,510 L-250,510 L-250,511 L-252,511 L-252,512 L-254,512 L-254,513 L-256,513 L-256,514 L-258,514 L-258,515 L-260,515 L-260,516 L-263,516 L-263,517 L-266,517 L-266,518 L-270,518 L-270,519 L-275,519 L-275,520 L-283,520 L-283,521 L-294,521 L-294,520 L-303,520 L-303,519 L-308,519 L-308,518 L-312,518 L-312,517 L-316,517 L-316,516 L-318,516 L-318,515 L-321,515 L-321,514 L-323,514 L-323,513 L-326,513 L-326,512 L-328,512 L-328,511 L-329,511 L-329,510 L-331,510 L-331,509 L-333,509 L-333,508 L-334,508 L-334,507 L-336,507 L-336,506 L-338,506 L-338,505 L-339,505 L-339,504 L-340,504 L-340,503 L-341,503 L-341,502 L-343,502 L-343,501 L-344,501 L-344,500 L-345,500 L-345,499 L-346,499 L-346,498 L-347,498 L-347,497 L-348,497 L-348,496 L-349,496 L-349,495 L-350,495 L-350,494 L-351,494 L-351,492 L-352,492 L-352,491 L-353,491 L-353,490 L-354,490 L-354,489 L-355,489 L-355,487 L-356,487 L-356,486 L-357,486 L-357,484 L-358,484 L-358,483 L-359,483 L-359,481 L-360,481 L-360,479 L-361,479 L-361,477 L-362,477 L-362,475 L-363,475 L-363,473 L-364,473 L-364,471 L-365,471 L-365,468 L-366,468 L-366,465 L-367,465 L-367,462 L-368,462 L-368,459 L-369,459 L-369,456 L-370,456 L-370,453 L-371,453 L-371,450 L-372,450 L-372,447 L-373,447 L-373,444 L-374,444 L-374,441 L-375,441 L-375,438 L-376,438 L-376,435 L-377,435 L-377,432 L-378,432 L-378,429 L-379,429 L-379,426 L-380,426 L-380,423 L-381,423 L-381,420 L-382,420 L-382,417 L-383,417 L-383,415 L-384,415 L-384,411 L-385,411 L-385,408 L-386,408 L-386,406 L-387,406 L-387,402 L-388,402 L-388,399 L-389,399 L-389,396 L-390,396 L-390,393 L-391,393 L-391,390 L-392,390 L-392,387 L-393,387 L-393,384 L-394,384 L-394,381 L-395,381 L-395,378 L-396,378 L-396,375 L-397,375 L-397,373 L-398,373 L-398,369 L-399,369 L-399,366 L-400,366 L-400,364 L-401,364 L-401,361 L-402,361 L-402,357 L-403,357 L-403,354 L-404,354 L-404,351 L-405,351 L-405,348 L-406,348 L-406,345 L-407,345 L-407,342 L-408,342 L-408,340 L-409,340 L-409,336 L-410,336 L-410,333 L-411,333 L-411,331 L-412,331 L-412,327 L-413,327 L-413,324 L-414,324 L-414,322 L-415,322 L-415,319 L-416,319 L-416,315 L-417,315 L-417,312 L-418,312 L-418,310 L-419,310 L-419,307 L-420,307 L-420,303 L-421,303 L-421,301 L-422,301 L-422,298 L-423,298 L-423,294 L-424,294 L-424,293 L-425,293 L-425,294 L-426,294 L-426,296 L-427,296 L-427,298 L-428,298 L-428,300 L-429,300 L-429,302 L-430,302 L-430,304 L-431,304 L-431,306 L-432,306 L-432,308 L-433,308 L-433,310 L-434,310 L-434,312 L-435,312 L-435,314 L-436,314 L-436,316 L-437,316 L-437,318 L-438,318 L-438,320 L-439,320 L-439,322 L-440,322 L-440,324 L-441,324 L-441,326 L-442,326 L-442,328 L-443,328 L-443,330 L-444,330 L-444,332 L-445,332 L-445,334 L-446,334 L-446,336 L-447,336 L-447,338 L-448,338 L-448,340 L-449,340 L-449,342 L-450,342 L-450,344 L-451,344 L-451,346 L-452,346 L-452,348 L-453,348 L-453,350 L-454,350 L-454,352 L-455,352 L-455,354 L-456,354 L-456,356 L-457,356 L-457,358 L-458,358 L-458,360 L-459,360 L-459,362 L-460,362 L-460,364 L-461,364 L-461,366 L-462,366 L-462,368 L-463,368 L-463,370 L-464,370 L-464,372 L-465,372 L-465,374 L-466,374 L-466,376 L-467,376 L-467,378 L-468,378 L-468,380 L-469,380 L-469,382 L-470,382 L-470,384 L-471,384 L-471,386 L-472,386 L-472,388 L-473,388 L-473,390 L-474,390 L-474,392 L-475,392 L-475,394 L-476,394 L-476,396 L-477,396 L-477,398 L-478,398 L-478,400 L-479,400 L-479,402 L-480,402 L-480,404 L-481,404 L-481,406 L-482,406 L-482,408 L-483,408 L-483,410 L-484,410 L-484,412 L-485,412 L-485,414 L-486,414 L-486,416 L-487,416 L-487,418 L-488,418 L-488,420 L-489,420 L-489,422 L-490,422 L-490,424 L-491,424 L-491,426 L-492,426 L-492,428 L-493,428 L-493,430 L-494,430 L-494,432 L-495,432 L-495,434 L-496,434 L-496,436 L-497,436 L-497,438 L-498,438 L-498,440 L-499,440 L-499,442 L-500,442 L-500,444 L-501,444 L-501,446 L-502,446 L-502,448 L-503,448 L-503,450 L-504,450 L-504,452 L-505,452 L-505,454 L-506,454 L-506,456 L-507,456 L-507,458 L-508,458 L-508,460 L-509,460 L-509,462 L-510,462 L-510,464 L-511,464 L-511,466 L-512,466 L-512,468 L-513,468 L-513,470 L-514,470 L-514,472 L-515,472 L-515,474 L-516,474 L-516,476 L-517,476 L-517,478 L-518,478 L-518,480 L-519,480 L-519,482 L-520,482 L-520,484 L-521,484 L-521,486 L-522,486 L-522,488 L-523,488 L-523,490 L-524,490 L-524,492 L-525,492 L-525,494 L-526,494 L-526,496 L-527,496 L-527,498 L-528,498 L-528,500 L-529,500 L-529,502 L-530,502 L-530,504 L-531,504 L-531,506 L-532,506 L-532,508 L-533,508 L-533,510 L-534,510 L-534,512 L-535,512 L-535,514 L-536,514 L-536,516 L-537,516 L-537,517 L-538,517 L-538,518 L-539,518 L-539,519 L-541,519 L-541,520 L-543,520 L-543,521 L-671,521 L-671,519 L-670,519 L-670,518 L-669,518 L-669,517 L-668,517 L-668,515 L-667,515 L-667,514 L-666,514 L-666,513 L-665,513 L-665,512 L-664,512 L-664,510 L-663,510 L-663,509 L-662,509 L-662,508 L-661,508 L-661,507 L-660,507 L-660,506 L-659,506 L-659,504 L-658,504 L-658,503 L-657,503 L-657,502 L-656,502 L-656,501 L-655,501 L-655,499 L-654,499 L-654,498 L-653,498 L-653,497 L-553,497 L-553,496 L-552,496 L-552,494 L-551,494 L-551,492 L-550,492 L-550,490 L-549,490 L-549,488 L-548,488 L-548,486 L-547,486 L-547,484 L-546,484 L-546,482 L-545,482 L-545,480 L-544,480 L-544,478 L-543,478 L-543,476 L-542,476 L-542,474 L-541,474 L-541,472 L-540,472 L-540,470 L-539,470 L-539,468 L-538,468 L-538,466 L-537,466 L-537,464 L-536,464 L-536,462 L-535,462 L-535,460 L-534,460 L-534,458 L-533,458 L-533,456 L-532,456 L-532,454 L-531,454 L-531,452 L-530,452 L-530,450 L-529,450 L-529,448 L-528,448 L-528,446 L-527,446 L-527,444 L-526,444 L-526,442 L-525,442 L-525,440 L-524,440 L-524,438 L-523,438 L-523,436 L-522,436 L-522,434 L-521,434 L-521,432 L-520,432 L-520,430 L-519,430 L-519,428 L-518,428 L-518,426 L-517,426 L-517,424 L-516,424 L-516,422 L-515,422 L-515,420 L-514,420 L-514,418 L-513,418 L-513,416 L-512,416 L-512,414 L-511,414 L-511,412 L-510,412 L-510,410 L-509,410 L-509,408 L-508,408 L-508,406 L-507,406 L-507,404 L-506,404 L-506,402 L-505,402 L-505,400 L-504,400 L-504,398 L-503,398 L-503,396 L-502,396 L-502,394 L-501,394 L-501,392 L-500,392 L-500,390 L-499,390 L-499,388 L-498,388 L-498,386 L-497,386 L-497,384 L-496,384 L-496,382 L-495,382 L-495,380 L-494,380 L-494,378 L-493,378 L-493,376 L-492,376 L-492,374 L-491,374 L-491,372 L-490,372 L-490,370 L-489,370 L-489,368 L-488,368 L-488,366 L-487,366 L-487,364 L-486,364 L-486,362 L-485,362 L-485,360 L-484,360 L-484,358 L-483,358 L-483,356 L-482,356 L-482,354 L-481,354 L-481,352 L-480,352 L-480,350 L-479,350 L-479,348 L-478,348 L-478,346 L-477,346 L-477,344 L-476,344 L-476,342 L-475,342 L-475,340 L-474,340 L-474,338 L-473,338 L-473,336 L-472,336 L-472,334 L-471,334 L-471,332 L-470,332 L-470,330 L-469,330 L-469,328 L-468,328 L-468,326 L-467,326 L-467,324 L-466,324 L-466,322 L-465,322 L-465,320 L-464,320 L-464,318 L-463,318 L-463,316 L-462,316 L-462,314 L-461,314 L-461,312 L-460,312 L-460,310 L-459,310 L-459,308 L-458,308 L-458,306 L-457,306 L-457,304 L-456,304 L-456,302 L-455,302 L-455,300 L-454,300 L-454,299 L-453,299 L-453,297 L-452,297 L-452,295 L-451,295 L-451,293 L-450,293 L-450,290 L-449,290 L-449,289 L-448,289 L-448,287 L-447,287 L-447,285 L-446,285 L-446,283 L-445,283 L-445,281 L-444,281 L-444,279 L-443,279 L-443,277 L-442,277 L-442,275 L-441,275 L-441,273 L-440,273 L-440,271 L-439,271 L-439,269 L-438,269 L-438,267 L-437,267 L-437,265 L-436,265 L-436,263 L-435,263 L-435,261 L-434,261 L-434,259 L-433,259 L-433,257 L-432,257 L-432,255 L-431,255 L-431,253 L-430,253 L-430,251 L-429,251 L-429,249 L-428,249 L-428,247 L-427,247 L-427,245 L-426,245 L-426,243 L-425,243 L-425,241 L-424,241 L-424,239 L-423,239 L-423,237 L-422,237 L-422,235 L-421,235 L-421,233 L-420,233 L-420,231 L-419,231 L-419,229 L-418,229 L-418,227 L-417,227 L-417,225 L-416,225 L-416,223 L-415,223 L-415,221 L-414,221 L-414,219 L-413,219 L-413,217 L-412,217 L-412,215 L-411,215 L-411,213 L-410,213 L-410,211 L-409,211 L-409,209 L-408,209 L-408,207 L-407,207 L-407,205 L-406,205 L-406,203 L-405,203 L-405,201 L-404,201 L-404,199 L-403,199 L-403,197 L-402,197 L-402,195 L-401,195 L-401,193 L-400,193 L-400,191 L-399,191 L-399,189 L-398,189 L-398,187 L-397,187 L-397,185 L-396,185 L-396,183 L-395,183 L-395,181 L-394,181 L-394,179 L-393,179 L-393,177 L-392,177 L-392,175 L-391,175 L-391,173 L-390,173 L-390,171 L-389,171 L-389,169 L-388,169 L-388,167 L-387,167 L-387,165 L-386,165 L-386,163 L-385,163 L-385,161 L-384,161 L-384,159 L-383,159 L-383,157 L-382,157 L-382,155 L-381,155 L-381,153 L-380,153 L-380,151 L-379,151 L-379,149 L-378,149 L-378,147 L-377,147 L-377,145 L-376,145 L-376,143 L-375,143 L-375,141 L-374,141 L-374,139 L-373,139 L-373,137 L-372,137 L-372,135 L-371,135 L-371,133 L-370,133 L-370,131 L-369,131 L-369,129 L-368,129 L-368,127 L-367,127 L-367,125 L-366,125 L-366,123 L-365,123 L-365,121 L-364,121 L-364,119 L-363,119 L-363,117 L-362,117 L-362,115 L-361,115 L-361,113 L-360,113 L-360,111 L-359,111 L-359,109 L-358,109 L-358,107 L-357,107 L-357,105 L-356,105 L-356,103 L-355,103 L-355,101 L-354,101 L-354,99 L-353,99 L-353,97 L-352,97 L-352,95 L-351,95 L-351,93 L-350,93 L-350,91 L-349,91 L-349,89 L-348,89 L-348,87 L-347,87 L-347,85 L-346,85 L-346,83 L-345,83 L-345,81 L-344,81 L-344,79 L-343,79 L-343,77 L-342,77 L-342,75 L-341,75 L-341,73 L-340,73 L-340,71 L-339,71 L-339,69 L-338,69 L-338,67 L-337,67 L-337,65 L-336,65 L-336,63 L-335,63 L-335,61 L-334,61 L-334,59 L-333,59 L-333,57 L-332,57 L-332,55 L-331,55 L-331,53 L-330,53 L-330,51 L-329,51 L-329,49 L-328,49 L-328,47 L-327,47 L-327,45 L-326,45 L-326,43 L-325,43 L-325,41 L-324,41 L-324,40 L-323,40 L-323,38 L-322,38 L-322,36 L-321,36 L-321,35 L-320,35 L-320,34 L-319,34 L-319,32 L-318,32 L-318,31 L-317,31 L-317,30 L-316,30 L-316,28 L-315,28 L-315,27 L-314,27 L-314,26 L-313,26 L-313,25 L-312,25 L-312,24 L-311,24 L-311,23 L-310,23 L-310,22 L-309,22 L-309,21 L-308,21 L-308,20 L-307,20 L-307,19 L-305,19 L-305,18 L-304,18 L-304,17 L-303,17 L-303,16 L-302,16 L-302,15 L-300,15 L-300,14 L-299,14 L-299,13 L-297,13 L-297,12 L-295,12 L-295,11 L-294,11 L-294,10 L-292,10 L-292,9 L-290,9 L-290,8 L-288,8 L-288,7 L-286,7 L-286,6 L-283,6 L-283,5 L-280,5 L-280,4 L-277,4 L-277,3 L-273,3 L-273,2 L-268,2 L-268,1 L-241,1 L-241,2 L-236,2 L-236,3 L-232,3 L-232,4 L-229,4 L-229,5 L-226,5 L-226,6 L-223,6 L-223,7 L-221,7 L-221,8 L-219,8 L-219,9 L-216,9 L-216,10 L-215,10 L-215,11 L-213,11 L-213,12 L-211,12 L-211,13 L-210,13 L-210,14 L-208,14 L-208,15 L-207,15 L-207,16 L-205,16 L-205,17 L-204,17 L-204,18 L-203,18 L-203,19 L-201,19 L-201,20 L-200,20 L-200,21 L-199,21 L-199,22 L-198,22 L-198,23 L-197,23 L-197,24 L-196,24 L-196,25 L-195,25 L-195,26 L-194,26 L-194,27 L-193,27 L-193,28 L-192,28 L-192,30 L-191,30 L-191,31 L-190,31 L-190,32 L-189,32 L-189,34 L-188,34 L-188,35 L-187,35 L-187,36 L-186,36 L-186,38 L-185,38 L-185,40 L-184,40 L-184,42 L-183,42 L-183,43 L-182,43 L-182,45 L-181,45 L-181,48 L-180,48 L-180,50 L-179,50 L-179,53 L-178,53 L-178,55 L-177,55 L-177,58 L-176,58 L-176,61 L-175,61 L-175,64 L-174,64 L-174,67 L-173,67 L-173,70 L-172,70 L-172,73 L-171,73 L-171,76 L-170,76 L-170,79 L-169,79 L-169,82 L-168,82 L-168,85 L-167,85 L-167,88 L-166,88 L-166,91 L-165,91 L-165,94 L-164,94 L-164,97 L-163,97 L-163,100 L-162,100 L-162,103 L-161,103 L-161,106 L-160,106 L-160,109 L-159,109 L-159,112 L-158,112 L-158,115 L-157,115 L-157,118 L-156,118 L-156,121 L-155,121 L-155,124 L-154,124 L-154,127 L-153,127 L-153,130 L-152,130 L-152,133 L-151,133 L-151,136 L-150,136 L-150,139 L-149,139 L-149,142 L-148,142 L-148,145 L-147,145 L-147,148 L-146,148 L-146,151 L-145,151 L-145,154 L-144,154 L-144,157 L-143,157 L-143,160 L-142,160 L-142,163 L-141,163 L-141,166 L-140,166 L-140,169 L-139,169 L-139,172 L-138,172 L-138,175 L-137,175 L-137,178 L-136,178 L-136,181 L-135,181 L-135,184 L-134,184 L-134,187 L-133,187 L-133,190 L-132,190 L-132,193 L-131,193 L-131,196 L-130,196 L-130,199 L-129,199 L-129,202 L-128,202 L-128,205 L-127,205 L-127,208 L-126,208 L-126,211 L-125,211 L-125,214 L-124,214 L-124,217 L-123,217 L-123,220 L-122,220 L-122,223 L-121,223 L-121,226 L-120,226 L-120,228 L-119,228 L-119,227 L-118,227 L-118,225 L-117,225 L-117,223 L-116,223 L-116,221 L-115,221 L-115,219 L-114,219 L-114,217 L-113,217 L-113,215 L-112,215 L-112,213 L-111,213 L-111,211 L-110,211 L-110,209 L-109,209 L-109,207 L-108,207 L-108,205 L-107,205 L-107,203 L-106,203 L-106,201 L-105,201 L-105,199 L-104,199 L-104,197 L-103,197 L-103,195 L-102,195 L-102,193 L-101,193 L-101,191 L-100,191 L-100,189 L-99,189 L-99,187 L-98,187 L-98,185 L-97,185 L-97,183 L-96,183 L-96,181 L-95,181 L-95,179 L-94,179 L-94,177 L-93,177 L-93,175 L-92,175 L-92,173 L-91,173 L-91,171 L-90,171 L-90,169 L-89,169 L-89,167 L-88,167 L-88,165 L-87,165 L-87,163 L-86,163 L-86,161 L-85,161 L-85,159 L-84,159 L-84,157 L-83,157 L-83,155 L-82,155 L-82,153 L-81,153 L-81,151 L-80,151 L-80,149 L-79,149 L-79,147 L-78,147 L-78,145 L-77,145 L-77,143 L-76,143 L-76,141 L-75,141 L-75,139 L-74,139 L-74,137 L-73,137 L-73,135 L-72,135 L-72,133 L-71,133 L-71,131 L-70,131 L-70,129 L-69,129 L-69,127 L-68,127 L-68,125 L-67,125 L-67,123 L-66,123 L-66,121 L-65,121 L-65,119 L-64,119 L-64,117 L-63,117 L-63,115 L-62,115 L-62,113 L-61,113 L-61,111 L-60,111 L-60,109 L-59,109 L-59,107 L-58,107 L-58,105 L-57,105 L-57,103 L-56,103 L-56,101 L-55,101 L-55,99 L-54,99 L-54,97 L-53,97 L-53,95 L-52,95 L-52,93 L-51,93 L-51,91 L-50,91 L-50,89 L-49,89 L-49,87 L-48,87 L-48,85 L-47,85 L-47,83 L-46,83 L-46,81 L-45,81 L-45,79 L-44,79 L-44,77 L-43,77 L-43,75 L-42,75 L-42,73 L-41,73 L-41,71 L-40,71 L-40,69 L-39,69 L-39,67 L-38,67 L-38,65 L-37,65 L-37,63 L-36,63 L-36,61 L-35,61 L-35,59 L-34,59 L-34,57 L-33,57 L-33,55 L-32,55 L-32,53 L-31,53 L-31,51 L-30,51 L-30,49 L-29,49 L-29,47 L-28,47 L-28,45 L-27,45 L-27,43 L-26,43 L-26,41 L-25,41 L-25,39 L-24,39 L-24,37 L-23,37 L-23,35 L-22,35 L-22,33 L-21,33 L-21,31 L-20,31 L-20,29 L-19,29 L-19,27 L-18,27 L-18,25 L-17,25 L-17,23 L-16,23 L-16,21 L-15,21 L-15,19 L-14,19 L-14,17 L-13,17 L-13,15 L-12,15 L-12,13 L-11,13 L-11,11 L-10,11 L-10,9 L-9,9 L-9,7 L-8,7 L-8,5 L-7,5 L-7,4 L-6,4 L-6,3 L-5,3 L-5,2 L-3,2 L-3,1 L0,1 Z M-263,24 L-263,25 L-269,25 L-269,26 L-272,26 L-272,27 L-275,27 L-275,28 L-278,28 L-278,29 L-280,29 L-280,30 L-282,30 L-282,31 L-283,31 L-283,32 L-285,32 L-285,33 L-287,33 L-287,34 L-288,34 L-288,35 L-289,35 L-289,36 L-291,36 L-291,37 L-292,37 L-292,38 L-293,38 L-293,39 L-294,39 L-294,40 L-295,40 L-295,41 L-296,41 L-296,42 L-297,42 L-297,43 L-298,43 L-298,44 L-299,44 L-299,46 L-300,46 L-300,47 L-301,47 L-301,49 L-302,49 L-302,50 L-303,50 L-303,52 L-304,52 L-304,54 L-305,54 L-305,55 L-306,55 L-306,57 L-307,57 L-307,59 L-308,59 L-308,61 L-309,61 L-309,63 L-310,63 L-310,65 L-311,65 L-311,67 L-312,67 L-312,69 L-313,69 L-313,71 L-314,71 L-314,73 L-315,73 L-315,75 L-316,75 L-316,77 L-317,77 L-317,79 L-318,79 L-318,81 L-319,81 L-319,83 L-318,83 L-318,86 L-317,86 L-317,89 L-316,89 L-316,92 L-315,92 L-315,95 L-314,95 L-314,98 L-313,98 L-313,101 L-312,101 L-312,104 L-311,104 L-311,107 L-310,107 L-310,110 L-309,110 L-309,113 L-308,113 L-308,116 L-307,116 L-307,119 L-306,119 L-306,122 L-305,122 L-305,125 L-304,125 L-304,128 L-303,128 L-303,131 L-302,131 L-302,134 L-301,134 L-301,137 L-300,137 L-300,140 L-299,140 L-299,143 L-298,143 L-298,146 L-297,146 L-297,149 L-296,149 L-296,152 L-295,152 L-295,155 L-294,155 L-294,158 L-293,158 L-293,161 L-292,161 L-292,164 L-291,164 L-291,167 L-290,167 L-290,170 L-289,170 L-289,173 L-288,173 L-288,176 L-287,176 L-287,179 L-286,179 L-286,182 L-285,182 L-285,185 L-284,185 L-284,188 L-283,188 L-283,191 L-282,191 L-282,194 L-281,194 L-281,197 L-280,197 L-280,200 L-279,200 L-279,203 L-278,203 L-278,206 L-277,206 L-277,209 L-276,209 L-276,212 L-275,212 L-275,215 L-274,215 L-274,218 L-273,218 L-273,221 L-272,221 L-272,224 L-271,224 L-271,227 L-270,227 L-270,230 L-269,230 L-269,233 L-268,233 L-268,236 L-267,236 L-267,239 L-266,239 L-266,242 L-265,242 L-265,245 L-264,245 L-264,248 L-263,248 L-263,251 L-262,251 L-262,254 L-261,254 L-261,257 L-260,257 L-260,260 L-259,260 L-259,263 L-258,263 L-258,266 L-257,266 L-257,269 L-256,269 L-256,272 L-255,272 L-255,275 L-254,275 L-254,278 L-253,278 L-253,281 L-252,281 L-252,284 L-251,284 L-251,287 L-250,287 L-250,290 L-249,290 L-249,293 L-248,293 L-248,296 L-247,296 L-247,299 L-246,299 L-246,302 L-245,302 L-245,305 L-244,305 L-244,308 L-243,308 L-243,311 L-242,311 L-242,314 L-241,314 L-241,317 L-240,317 L-240,320 L-239,320 L-239,323 L-238,323 L-238,326 L-237,326 L-237,329 L-236,329 L-236,332 L-235,332 L-235,335 L-234,335 L-234,338 L-233,338 L-233,341 L-232,341 L-232,344 L-231,344 L-231,347 L-230,347 L-230,350 L-229,350 L-229,353 L-228,353 L-228,356 L-227,356 L-227,359 L-226,359 L-226,362 L-225,362 L-225,365 L-224,365 L-224,368 L-223,368 L-223,371 L-222,371 L-222,374 L-221,374 L-221,377 L-220,377 L-220,380 L-219,380 L-219,383 L-218,383 L-218,386 L-217,386 L-217,389 L-216,389 L-216,392 L-215,392 L-215,394 L-214,394 L-214,398 L-213,398 L-213,401 L-212,401 L-212,404 L-211,404 L-211,407 L-209,407 L-209,405 L-208,405 L-208,403 L-207,403 L-207,401 L-206,401 L-206,399 L-205,399 L-205,397 L-204,397 L-204,395 L-203,395 L-203,393 L-202,393 L-202,391 L-201,391 L-201,389 L-200,389 L-200,387 L-199,387 L-199,385 L-198,385 L-198,383 L-197,383 L-197,381 L-196,381 L-196,379 L-195,379 L-195,377 L-194,377 L-194,375 L-193,375 L-193,373 L-192,373 L-192,371 L-191,371 L-191,369 L-190,369 L-190,367 L-189,367 L-189,365 L-188,365 L-188,363 L-187,363 L-187,361 L-186,361 L-186,359 L-185,359 L-185,357 L-184,357 L-184,355 L-183,355 L-183,353 L-182,353 L-182,351 L-181,351 L-181,349 L-180,349 L-180,347 L-179,347 L-179,345 L-178,345 L-178,343 L-177,343 L-177,341 L-176,341 L-176,339 L-175,339 L-175,337 L-174,337 L-174,335 L-173,335 L-173,333 L-172,333 L-172,331 L-171,331 L-171,329 L-170,329 L-170,327 L-169,327 L-169,325 L-168,325 L-168,323 L-167,323 L-167,321 L-166,321 L-166,319 L-165,319 L-165,317 L-164,317 L-164,315 L-163,315 L-163,313 L-162,313 L-162,311 L-161,311 L-161,309 L-160,309 L-160,307 L-159,307 L-159,305 L-158,305 L-158,303 L-157,303 L-157,301 L-156,301 L-156,299 L-155,299 L-155,297 L-154,297 L-154,295 L-153,295 L-153,293 L-152,293 L-152,291 L-151,291 L-151,289 L-150,289 L-150,287 L-149,287 L-149,285 L-148,285 L-148,283 L-147,283 L-147,281 L-146,281 L-146,279 L-145,279 L-145,277 L-144,277 L-144,275 L-143,275 L-143,273 L-142,273 L-142,271 L-141,271 L-141,269 L-140,269 L-140,267 L-139,267 L-139,265 L-138,265 L-138,263 L-137,263 L-137,261 L-136,261 L-136,259 L-135,259 L-135,256 L-136,256 L-136,254 L-137,254 L-137,251 L-138,251 L-138,248 L-139,248 L-139,245 L-140,245 L-140,242 L-141,242 L-141,239 L-142,239 L-142,235 L-143,235 L-143,233 L-144,233 L-144,230 L-145,230 L-145,227 L-146,227 L-146,224 L-147,224 L-147,221 L-148,221 L-148,218 L-149,218 L-149,215 L-150,215 L-150,212 L-151,212 L-151,209 L-152,209 L-152,206 L-153,206 L-153,203 L-154,203 L-154,200 L-155,200 L-155,197 L-156,197 L-156,194 L-157,194 L-157,191 L-158,191 L-158,188 L-159,188 L-159,185 L-160,185 L-160,182 L-161,182 L-161,179 L-162,179 L-162,176 L-163,176 L-163,173 L-164,173 L-164,170 L-165,170 L-165,167 L-166,167 L-166,164 L-167,164 L-167,161 L-168,161 L-168,158 L-169,158 L-169,155 L-170,155 L-170,152 L-171,152 L-171,149 L-172,149 L-172,146 L-173,146 L-173,143 L-174,143 L-174,140 L-175,140 L-175,137 L-176,137 L-176,134 L-177,134 L-177,131 L-178,131 L-178,128 L-179,128 L-179,125 L-180,125 L-180,122 L-181,122 L-181,119 L-182,119 L-182,116 L-183,116 L-183,113 L-184,113 L-184,110 L-185,110 L-185,107 L-186,107 L-186,104 L-187,104 L-187,101 L-188,101 L-188,98 L-189,98 L-189,95 L-190,95 L-190,92 L-191,92 L-191,89 L-192,89 L-192,86 L-193,86 L-193,83 L-194,83 L-194,80 L-195,80 L-195,77 L-196,77 L-196,74 L-197,74 L-197,71 L-198,71 L-198,68 L-199,68 L-199,65 L-200,65 L-200,62 L-201,62 L-201,59 L-202,59 L-202,57 L-203,57 L-203,55 L-204,55 L-204,53 L-205,53 L-205,51 L-206,51 L-206,50 L-207,50 L-207,48 L-208,48 L-208,47 L-209,47 L-209,45 L-210,45 L-210,44 L-211,44 L-211,43 L-212,43 L-212,42 L-213,42 L-213,41 L-214,41 L-214,40 L-215,40 L-215,39 L-216,39 L-216,38 L-217,38 L-217,37 L-218,37 L-218,36 L-220,36 L-220,35 L-221,35 L-221,34 L-222,34 L-222,33 L-224,33 L-224,32 L-225,32 L-225,31 L-227,31 L-227,30 L-229,30 L-229,29 L-231,29 L-231,28 L-234,28 L-234,27 L-237,27 L-237,26 L-241,26 L-241,25 L-245,25 L-245,24 Z M-334,113 L-334,115 L-335,115 L-335,117 L-336,117 L-336,119 L-337,119 L-337,121 L-338,121 L-338,123 L-339,123 L-339,125 L-340,125 L-340,126 L-341,126 L-341,128 L-342,128 L-342,130 L-343,130 L-343,132 L-344,132 L-344,134 L-345,134 L-345,136 L-346,136 L-346,138 L-347,138 L-347,140 L-348,140 L-348,143 L-349,143 L-349,144 L-350,144 L-350,147 L-351,147 L-351,148 L-352,148 L-352,150 L-353,150 L-353,152 L-354,152 L-354,154 L-355,154 L-355,156 L-356,156 L-356,158 L-357,158 L-357,160 L-358,160 L-358,162 L-359,162 L-359,164 L-360,164 L-360,166 L-361,166 L-361,168 L-362,168 L-362,170 L-363,170 L-363,172 L-364,172 L-364,174 L-365,174 L-365,176 L-366,176 L-366,178 L-367,178 L-367,180 L-368,180 L-368,182 L-369,182 L-369,184 L-370,184 L-370,186 L-371,186 L-371,188 L-372,188 L-372,190 L-373,190 L-373,192 L-374,192 L-374,194 L-375,194 L-375,196 L-376,196 L-376,198 L-377,198 L-377,200 L-378,200 L-378,202 L-379,202 L-379,204 L-380,204 L-380,206 L-381,206 L-381,208 L-382,208 L-382,210 L-383,210 L-383,212 L-384,212 L-384,214 L-385,214 L-385,216 L-386,216 L-386,218 L-387,218 L-387,220 L-388,220 L-388,222 L-389,222 L-389,224 L-390,224 L-390,226 L-391,226 L-391,228 L-392,228 L-392,230 L-393,230 L-393,232 L-394,232 L-394,234 L-395,234 L-395,236 L-396,236 L-396,238 L-397,238 L-397,240 L-398,240 L-398,242 L-399,242 L-399,244 L-400,244 L-400,246 L-401,246 L-401,248 L-402,248 L-402,250 L-403,250 L-403,252 L-404,252 L-404,254 L-405,254 L-405,256 L-406,256 L-406,258 L-407,258 L-407,260 L-408,260 L-408,262 L-409,262 L-409,264 L-408,264 L-408,267 L-407,267 L-407,270 L-406,270 L-406,273 L-405,273 L-405,276 L-404,276 L-404,279 L-403,279 L-403,281 L-402,281 L-402,285 L-401,285 L-401,288 L-400,288 L-400,291 L-399,291 L-399,294 L-398,294 L-398,297 L-397,297 L-397,300 L-396,300 L-396,303 L-395,303 L-395,306 L-394,306 L-394,309 L-393,309 L-393,312 L-392,312 L-392,315 L-391,315 L-391,318 L-390,318 L-390,321 L-389,321 L-389,324 L-388,324 L-388,327 L-387,327 L-387,330 L-386,330 L-386,333 L-385,333 L-385,336 L-384,336 L-384,339 L-383,339 L-383,342 L-382,342 L-382,345 L-381,345 L-381,348 L-380,348 L-380,351 L-379,351 L-379,354 L-378,354 L-378,357 L-377,357 L-377,360 L-376,360 L-376,363 L-375,363 L-375,366 L-374,366 L-374,369 L-373,369 L-373,372 L-372,372 L-372,375 L-371,375 L-371,378 L-370,378 L-370,381 L-369,381 L-369,384 L-368,384 L-368,387 L-367,387 L-367,390 L-366,390 L-366,393 L-365,393 L-365,396 L-364,396 L-364,399 L-363,399 L-363,402 L-362,402 L-362,405 L-361,405 L-361,408 L-360,408 L-360,411 L-359,411 L-359,414 L-358,414 L-358,417 L-357,417 L-357,420 L-356,420 L-356,423 L-355,423 L-355,426 L-354,426 L-354,429 L-353,429 L-353,432 L-352,432 L-352,435 L-351,435 L-351,438 L-350,438 L-350,441 L-349,441 L-349,444 L-348,444 L-348,447 L-347,447 L-347,450 L-346,450 L-346,453 L-345,453 L-345,456 L-344,456 L-344,459 L-343,459 L-343,461 L-342,461 L-342,464 L-341,464 L-341,466 L-340,466 L-340,468 L-339,468 L-339,470 L-338,470 L-338,471 L-337,471 L-337,473 L-336,473 L-336,474 L-335,474 L-335,475 L-334,475 L-334,477 L-333,477 L-333,478 L-332,478 L-332,479 L-331,479 L-331,480 L-330,480 L-330,481 L-329,481 L-329,482 L-328,482 L-328,483 L-327,483 L-327,484 L-326,484 L-326,485 L-324,485 L-324,486 L-323,486 L-323,487 L-322,487 L-322,488 L-320,488 L-320,489 L-318,489 L-318,490 L-317,490 L-317,491 L-315,491 L-315,492 L-313,492 L-313,493 L-310,493 L-310,494 L-307,494 L-307,495 L-304,495 L-304,496 L-299,496 L-299,497 L-280,497 L-280,496 L-275,496 L-275,495 L-272,495 L-272,494 L-269,494 L-269,493 L-266,493 L-266,492 L-264,492 L-264,491 L-262,491 L-262,490 L-260,490 L-260,489 L-259,489 L-259,488 L-257,488 L-257,487 L-256,487 L-256,486 L-254,486 L-254,485 L-253,485 L-253,484 L-252,484 L-252,483 L-251,483 L-251,482 L-250,482 L-250,481 L-249,481 L-249,480 L-248,480 L-248,479 L-247,479 L-247,478 L-246,478 L-246,477 L-245,477 L-245,475 L-244,475 L-244,474 L-243,474 L-243,473 L-242,473 L-242,471 L-241,471 L-241,470 L-240,470 L-240,468 L-239,468 L-239,466 L-238,466 L-238,464 L-237,464 L-237,462 L-236,462 L-236,460 L-235,460 L-235,458 L-234,458 L-234,456 L-233,456 L-233,454 L-232,454 L-232,452 L-231,452 L-231,451 L-230,451 L-230,449 L-229,449 L-229,447 L-228,447 L-228,445 L-227,445 L-227,443 L-226,443 L-226,441 L-225,441 L-225,439 L-224,439 L-224,437 L-225,437 L-225,434 L-226,434 L-226,431 L-227,431 L-227,428 L-228,428 L-228,425 L-229,425 L-229,422 L-230,422 L-230,419 L-231,419 L-231,416 L-232,416 L-232,413 L-233,413 L-233,410 L-234,410 L-234,407 L-235,407 L-235,404 L-236,404 L-236,401 L-237,401 L-237,398 L-238,398 L-238,395 L-239,395 L-239,392 L-240,392 L-240,389 L-241,389 L-241,386 L-242,386 L-242,383 L-243,383 L-243,380 L-244,380 L-244,377 L-245,377 L-245,374 L-246,374 L-246,371 L-247,371 L-247,368 L-248,368 L-248,365 L-249,365 L-249,362 L-250,362 L-250,359 L-251,359 L-251,356 L-252,356 L-252,353 L-253,353 L-253,350 L-254,350 L-254,347 L-255,347 L-255,344 L-256,344 L-256,341 L-257,341 L-257,338 L-258,338 L-258,335 L-259,335 L-259,332 L-260,332 L-260,329 L-261,329 L-261,326 L-262,326 L-262,323 L-263,323 L-263,320 L-264,320 L-264,317 L-265,317 L-265,314 L-266,314 L-266,311 L-267,311 L-267,308 L-268,308 L-268,305 L-269,305 L-269,302 L-270,302 L-270,299 L-271,299 L-271,296 L-272,296 L-272,293 L-273,293 L-273,290 L-274,290 L-274,287 L-275,287 L-275,284 L-276,284 L-276,281 L-277,281 L-277,278 L-278,278 L-278,275 L-279,275 L-279,272 L-280,272 L-280,269 L-281,269 L-281,266 L-282,266 L-282,263 L-283,263 L-283,260 L-284,260 L-284,257 L-285,257 L-285,254 L-286,254 L-286,251 L-287,251 L-287,248 L-288,248 L-288,245 L-289,245 L-289,242 L-290,242 L-290,239 L-291,239 L-291,236 L-292,236 L-292,233 L-293,233 L-293,230 L-294,230 L-294,227 L-295,227 L-295,224 L-296,224 L-296,221 L-297,221 L-297,218 L-298,218 L-298,215 L-299,215 L-299,212 L-300,212 L-300,209 L-301,209 L-301,206 L-302,206 L-302,203 L-303,203 L-303,200 L-304,200 L-304,197 L-305,197 L-305,194 L-306,194 L-306,191 L-307,191 L-307,188 L-308,188 L-308,185 L-309,185 L-309,182 L-310,182 L-310,179 L-311,179 L-311,176 L-312,176 L-312,173 L-313,173 L-313,170 L-314,170 L-314,167 L-315,167 L-315,164 L-316,164 L-316,161 L-317,161 L-317,158 L-318,158 L-318,155 L-319,155 L-319,152 L-320,152 L-320,149 L-321,149 L-321,146 L-322,146 L-322,143 L-323,143 L-323,140 L-324,140 L-324,137 L-325,137 L-325,134 L-326,134 L-326,131 L-327,131 L-327,128 L-328,128 L-328,125 L-329,125 L-329,122 L-330,122 L-330,119 L-331,119 L-331,116 L-332,116 L-332,113 Z " fill="#000000" transform="translate(672,133)"></path></svg>